# xmcd
#
# Track frame offsets: 
#        150
#        18450
#        36217
#        60894
#        78360
#        94724
#        118596
#        138266
#        153659
#        169759
#        190714
#        209721
#
# Disc length: 3052 seconds
#
# Revision: 0
# Processed by: cddbd v1.5.2PL0 Copyright (c) Steve Scherf et al.
# Submitted via: ExactAudioCopy v0.99pb4
#
DISCID=990bea0c
DTITLE=Thomas Spencer-Wortley - Credere
DYEAR=2009
DGENRE=Classical
TTITLE0=You Raise Me Up
TTITLE1=Remember When It Rained
TTITLE2=Un Giorno Per Noi
TTITLE3=Ave Maria
TTITLE4=The Rose
TTITLE5=Credere
TTITLE6=Broken Vow
TTITLE7=Always A Woman
TTITLE8=Open Road
TTITLE9=All That I Need
TTITLE10=The Prayer (Featuring Mairead Carlin)
TTITLE11=Because We Believe
EXTD=
EXTT0=
EXTT1=
EXTT2=
EXTT3=
EXTT4=
EXTT5=
EXTT6=
EXTT7=
EXTT8=
EXTT9=
EXTT10=
EXTT11=
PLAYORDER=
